<svg width="23" height="23" viewBox="0 0 23 23" fill="none"
  xmlns="http://www.w3.org/2000/svg">
  <path d="M22.149 10.4175C22.149 10.8492 22.149 11.2825 22.149 11.7142C22.1358 11.7837 22.1209 11.8515 22.1109 11.9209C22.0282 12.4684 21.9902 13.0274 21.8546 13.5616C20.8292 17.5807 18.3317 20.2583 14.4186 21.6046C13.7851 21.823 13.112 21.9255 12.4405 22.0859C12.4405 19.1469 12.4405 16.2708 12.4405 13.3665C13.3319 13.3665 14.2069 13.3665 15.0901 13.3665C15.224 12.3295 15.3547 11.3189 15.4903 10.2786C14.4599 10.2786 13.4494 10.2786 12.4372 10.2786C12.4372 9.50953 12.4256 8.76858 12.4438 8.02762C12.4488 7.81923 12.5116 7.59595 12.6042 7.4074C12.8043 6.99061 13.198 6.85334 13.623 6.83349C14.1986 6.80538 14.7758 6.81199 15.3514 6.80207C15.4275 6.80041 15.5035 6.7938 15.5912 6.79049C15.5912 5.90234 15.5945 5.03734 15.5846 4.17399C15.5846 4.12272 15.4887 4.03175 15.4357 4.0301C14.5658 3.99041 13.6942 3.92425 12.8242 3.9441C11.979 3.96229 11.1984 4.23684 10.5401 4.79421C9.68836 5.51532 9.32119 6.47459 9.26331 7.5546C9.2203 8.37329 9.24015 9.19694 9.23188 10.0173C9.23023 10.1016 9.23188 10.1843 9.23188 10.2935C8.3305 10.2935 7.45557 10.2935 6.58396 10.2935C6.58396 11.3305 6.58396 12.3443 6.58396 13.3863C7.47211 13.3863 8.34538 13.3863 9.22031 13.3863C9.22031 16.2608 9.22031 19.1056 9.22031 21.9586C9.16573 21.9536 9.12438 21.952 9.08303 21.9437C7.31665 21.6146 5.72392 20.8984 4.30486 19.7986C2.60959 18.4853 1.38735 16.8182 0.667894 14.8037C-0.274839 12.1608 -0.208682 9.52111 0.825017 6.91123C2.40285 2.91371 6.37722 0.131815 10.6758 0.00446328C12.6687 -0.0534239 14.5625 0.348478 16.3073 1.31602C19.4134 3.04106 21.3154 5.65921 21.977 9.1589C22.0547 9.57569 22.0928 9.99744 22.149 10.4175Z" fill="#4867aa"/>
</svg>
