<svg width="22" height="22" viewBox="0 0 22 22" fill="none" xmlns="http://www.w3.org/2000/svg">
<path d="M22.0003 11.0168C21.9937 16.9609 17.1278 21.8698 11.3226 21.9442C5.10386 22.0236 0.0544449 17.2355 0.0197126 10.9804C-0.0150197 4.84765 4.94343 -0.00990833 11.1737 1.51774e-05C17.1477 0.00993869 22.0069 4.95515 22.0003 11.0168ZM11.0315 4.76991C10.0689 4.76991 9.10303 4.73518 8.14211 4.77818C6.46834 4.85261 5.11213 6.10628 4.93516 7.77343C4.72346 9.77467 4.77473 11.7908 4.89877 13.7904C5.02943 15.9124 6.37241 17.2537 8.69782 17.1925C10.3203 17.1495 11.9461 17.176 13.5686 17.1875C14.1739 17.1908 14.8504 17.171 15.3019 16.87C16.3836 16.1489 17.1427 15.135 17.151 13.7375C17.1609 11.8669 17.1841 9.99464 17.1527 8.12406C17.1229 6.33948 15.6989 4.87246 13.9209 4.77984C12.96 4.72691 11.9957 4.76826 11.0315 4.76991Z" fill="#4E5057"/>
<path d="M10.9723 16.2137C10.0924 16.2154 9.21088 16.2385 8.33265 16.2104C6.74654 16.1591 5.80712 15.2561 5.77073 13.6882C5.73104 11.9019 5.73434 10.1124 5.77073 8.32616C5.8005 6.8641 6.71677 5.87837 8.17222 5.78244C10.066 5.65674 11.9663 5.66336 13.8617 5.78078C15.2179 5.86513 16.1176 6.74006 16.2036 8.10289C16.3227 9.99662 16.3442 11.897 16.2152 13.7907C16.111 15.3305 15.1666 16.1608 13.6153 16.2087C12.7337 16.2352 11.8522 16.212 10.9723 16.2137ZM7.76039 10.9179C7.76866 12.6379 9.13976 14.0223 10.84 14.0256C12.5534 14.0289 14.0287 12.5652 14.0106 10.8815C13.9924 9.16966 12.5435 7.77045 10.8036 7.78203C9.11165 7.79195 7.75378 9.19116 7.76039 10.9179ZM8.27146 7.70925C8.27311 7.20977 8.04983 6.96003 7.6347 6.96499C7.21956 6.96995 6.97809 7.25443 6.98471 7.64806C6.98967 8.002 7.21295 8.26166 7.60162 8.27158C8.01841 8.28151 8.25161 8.06319 8.27146 7.70925Z" fill="#4E5057"/>
<path d="M8.6896 10.8537C8.70283 9.61985 9.67533 8.68539 10.9191 8.71351C12.1397 8.74163 13.0923 9.73563 13.0692 10.9562C13.046 12.1586 12.0322 13.1245 10.8165 13.1014C9.58933 13.0782 8.67636 12.114 8.6896 10.8537Z" fill="#4E5057"/>
</svg>
