<svg width="23" height="22" viewBox="0 0 23 22" fill="none"
  xmlns="http://www.w3.org/2000/svg">
  <path d="M22.0751 11.0316C22.0768 17.037 17.1927 21.9806 11.2601 21.9773C4.99178 21.9756 0.0631001 17.1263 0.0664079 10.9655C0.0697158 4.90552 5.03147 0.00165433 11.1609 4.15436e-07C17.1894 -0.0016535 22.0734 4.93529 22.0751 11.0316ZM9.48382 12.4805C9.48382 13.1404 9.48382 13.8019 9.48382 14.4619C9.48382 16.043 9.48382 16.0182 11.0583 16.0232C11.6339 16.0248 11.8373 15.8545 11.8175 15.2706C11.7795 14.1989 11.7993 13.1238 11.8109 12.0505C11.8192 11.2682 12.2525 10.7984 12.9223 10.8017C13.6434 10.8067 13.913 11.1193 13.9229 12.0008C13.9329 12.7997 13.913 13.5969 13.9296 14.3957C13.9676 16.2564 13.569 15.9653 15.6149 16.0182C16.1408 16.0314 16.2665 15.8346 16.2583 15.3467C16.2335 13.9161 16.2401 12.4838 16.255 11.0531C16.2599 10.552 16.0813 10.1435 15.7637 9.77962C14.9417 8.83689 13.6203 8.65992 12.3782 9.33472C12.2144 9.42403 11.9713 9.66219 11.8886 9.50011C11.4189 8.56895 10.6134 9.24541 9.99323 9.06844C9.61448 8.95928 9.47224 9.20737 9.47886 9.58943C9.4954 10.5537 9.48547 11.5162 9.48382 12.4805ZM5.91301 12.4838C5.91136 12.4838 5.9097 12.4838 5.90805 12.4838C5.90805 13.1437 5.90805 13.8019 5.90805 14.4619C5.9097 16.0347 5.91136 16.0033 7.48589 16.0265C8.12099 16.0364 8.28473 15.8115 8.2715 15.216C8.23842 13.706 8.26323 12.196 8.25827 10.6843C8.2533 9.01221 8.25165 9.04032 6.59442 9.04032C6.02051 9.04032 5.89316 9.25864 5.90639 9.76474C5.92955 10.6711 5.91301 11.5774 5.91301 12.4838ZM8.25 7.15154C8.25496 6.50651 7.75547 6.04011 7.07241 6.05169C6.38438 6.06327 5.9312 6.50652 5.91466 7.18132C5.89978 7.78004 6.44888 8.35229 7.05091 8.36718C7.69759 8.38372 8.24338 7.82965 8.25 7.15154Z" fill="#2867b2"/>
</svg>
