<svg width="23" height="23" viewBox="0 0 23 23" fill="none"
  xmlns="http://www.w3.org/2000/svg">
  <path d="M11.1101 8.29184e-05C17.1868 -0.0231677 22.0943 4.84618 22.1143 10.9179C22.1325 16.9216 17.2383 21.9354 11.4073 22.0035C5.01342 22.0782 0.159017 17.0179 0.117498 11.172C0.0726579 4.88769 4.88388 0.0249943 11.1101 8.29184e-05ZM4.94532 15.5514C7.14085 16.7488 9.42605 16.8352 11.6697 15.8603C14.6857 14.5483 16.1953 12.122 16.3896 8.85857C16.4095 8.53306 16.363 8.20589 16.657 7.94183C16.8912 7.73091 17.3994 7.55487 17.2615 7.24431C17.0772 6.82912 16.6354 7.35392 16.3049 7.22106C16.28 7.2111 16.2518 7.21442 16.1804 7.20777C16.5607 6.84905 17.0041 6.5634 17.2034 5.9539C16.471 6.07015 15.8814 6.56672 15.1939 5.98213C14.3602 5.27299 13.3687 5.27299 12.4021 5.78616C11.4406 6.29602 10.8958 7.09484 10.9772 8.19925C11.0303 8.91503 10.6866 8.97482 10.1418 8.87518C8.47444 8.5696 6.98474 7.90861 5.75577 6.70955C5.56977 6.52852 5.39207 6.18641 5.09313 6.31097C4.76762 6.44715 4.86395 6.83078 4.82741 7.12474C4.69621 8.17766 5.18115 8.98645 5.94842 9.65739C5.51829 9.88492 5.11306 9.29701 4.88554 9.75704C4.70784 10.1141 4.99515 10.4911 5.18281 10.8316C5.52825 11.4577 6.19089 11.7317 6.7406 12.1585C6.45329 12.3229 6.06468 12.1054 5.95174 12.4026C5.83051 12.7182 6.14107 12.9474 6.32708 13.1782C6.81036 13.7777 7.5112 13.992 8.31002 14.1763C7.26208 14.9934 6.1693 15.3853 4.94532 15.5514Z"
   fill="#1d9bf0"/>
</svg>
