<svg width="320" height="181" viewBox="0 0 320 181" fill="none" xmlns="http://www.w3.org/2000/svg">
<path d="M-290.987 0.673199C-291.234 22.6438 -287.926 44.7695 -287.393 67.52C-243.41 138.046 -156.412 97.1996 -145.789 90.3819C-135.165 83.5643 -120.217 76.7933 -96.4295 72.9618C-66.0792 68.0727 -33.6984 74.2404 -6.49573 89.0779C9.03836 97.5479 22.5633 109.106 36.3303 120.286C45.5862 127.805 55.1734 134.733 64.4335 142.154C73.7277 149.6 83.1915 156.855 93.2842 163.078C105.042 170.329 117.751 176.2 131.2 178.956C147.137 182.223 164.532 179.496 180.117 175.444C196.292 171.242 211.848 164.391 225.984 155.148C237.734 147.463 249.224 139.346 260.493 130.91C270.437 123.464 279.982 115.435 290.419 108.737C305.265 99.2046 320 89.7448 340.67 84.4733C350.308 82.0138 388.309 72.3162 422.439 93.1855C428.926 97.1529 500.961 149.85 503.943 152.645C503.943 121.95 501.668 33.4958 501.668 2.8014C306.806 3.42158 -96.129 0.0487775 -290.987 0.673199Z" fill="white"/>
</svg>
