<svg width="272" height="441" viewBox="0 0 272 441" fill="none" xmlns="http://www.w3.org/2000/svg">
<path d="M173.371 122.152C140.841 122.152 109.069 133.343 83.8418 153.639C66.3912 167.675 45.242 175.073 22.7649 175.073C0.287878 175.073 -20.8614 167.675 -38.3119 153.639C-63.6342 133.343 -95.4055 122.152 -127.936 122.152C-160.466 122.152 -192.237 133.343 -217.275 153.45L-226 160.183V217.941L-188.918 189.014C-171.467 174.978 -150.413 167.581 -127.841 167.581C-105.364 167.581 -84.2144 174.978 -66.7639 189.014C-41.5365 209.31 -9.67031 220.501 22.7649 220.501C55.295 220.501 87.0663 209.31 112.389 189.014C129.839 174.978 150.894 167.581 173.465 167.581C198.883 167.581 217.092 174.978 234.827 189.204L271.625 217.941V160.183L263.184 153.544C237.767 133.249 205.901 122.152 173.371 122.152Z" fill="#F4F5F7"/>
<path d="M262.994 31.392C237.672 11.0963 205.901 0 173.371 0C140.841 0 109.069 11.1911 83.8418 31.392C66.3912 45.4283 45.242 52.8258 22.7649 52.8258C0.287878 52.8258 -20.8614 45.4283 -38.3119 31.392C-63.6342 11.0963 -95.4055 0 -127.936 0C-160.466 0 -192.237 11.1911 -217.275 31.2971L-226 38.0308V95.883L-188.918 66.8621C-171.467 52.8258 -150.413 45.4283 -127.841 45.4283C-105.364 45.4283 -84.2144 52.8258 -66.7639 66.8621C-41.5365 87.1578 -9.67031 98.254 22.7649 98.254C55.295 98.254 87.0663 87.063 112.389 66.8621C129.839 52.8258 150.894 45.4283 173.465 45.4283C195.848 45.4283 216.807 52.731 234.258 66.5776L271.53 98.5386V38.505L263.658 31.7714L262.994 31.392Z" fill="#F4F5F7"/>
<path d="M238.142 418.333C223.916 426.774 209.026 434.361 193.662 441L22.7602 304.335L-148.141 441C-163.6 434.266 -178.49 426.679 -192.621 418.333L22.8551 246.009L238.142 418.333Z" fill="#F4F5F7"/>
<path d="M173.376 229.699C160.952 229.699 149.761 233.588 140.087 241.365C138.665 242.503 137.337 243.546 135.819 244.684L271.44 353.181V294.854L196.896 235.2C189.688 231.596 181.817 229.699 173.376 229.699Z" fill="#F4F5F7"/>
</svg>
