<svg width="46" height="139" viewBox="0 0 46 139" fill="none" xmlns="http://www.w3.org/2000/svg">
<path d="M15.1984 38.293C5.00057 38.293 -4.95942 41.8013 -12.8679 48.1638C-18.3385 52.564 -24.9686 54.883 -32.0149 54.883C-39.0612 54.883 -45.6913 52.564 -51.1618 48.1638C-59.1001 41.8013 -69.06 38.293 -79.2579 38.293C-89.4557 38.293 -99.4157 41.8013 -107.265 48.1043L-110 50.2152V68.3216L-98.3751 59.2535C-92.9045 54.8533 -86.3042 52.5343 -79.2281 52.5343C-72.1818 52.5343 -65.5517 54.8533 -60.0812 59.2535C-52.1727 65.616 -42.183 69.1243 -32.0149 69.1243C-21.817 69.1243 -11.8571 65.616 -3.91881 59.2535C1.55174 54.8533 8.15208 52.5343 15.2281 52.5343C23.1961 52.5343 28.9045 54.8533 34.4643 59.313L46 68.3216V50.2152L43.3539 48.134C35.3859 41.7715 25.3962 38.293 15.1984 38.293Z" fill="#F4F5F7"/>
<path d="M43.2945 9.84106C35.3562 3.47856 25.3962 0 15.1984 0C5.00057 0 -4.95942 3.50829 -12.8679 9.84106C-18.3385 14.2413 -24.9686 16.5603 -32.0149 16.5603C-39.0612 16.5603 -45.6913 14.2413 -51.1618 9.84106C-59.1001 3.47856 -69.06 0 -79.2579 0C-89.4557 0 -99.4157 3.50829 -107.265 9.81132L-110 11.9222V30.0583L-98.3751 20.9605C-92.9045 16.5603 -86.3042 14.2413 -79.2281 14.2413C-72.1818 14.2413 -65.5517 16.5603 -60.0812 20.9605C-52.1727 27.323 -42.183 30.8016 -32.0149 30.8016C-21.817 30.8016 -11.8571 27.2933 -3.91881 20.9605C1.55174 16.5603 8.15208 14.2413 15.2281 14.2413C22.2447 14.2413 28.8153 16.5306 34.2859 20.8714L45.9703 30.8908V12.0709L43.5026 9.95998L43.2945 9.84106Z" fill="#F4F5F7"/>
<path d="M35.5033 131.143C31.0436 133.789 26.3758 136.167 21.5594 138.249L-32.0164 95.4058L-85.5922 138.249C-90.4384 136.138 -95.1062 133.759 -99.5361 131.143L-31.9867 77.1211L35.5033 131.143Z" fill="#F4F5F7"/>
<path d="M15.2003 72.0078C11.3055 72.0078 7.79725 73.2268 4.76466 75.6648C4.31869 76.0215 3.90246 76.3486 3.42676 76.7054L45.9425 110.718V92.4332L22.5737 73.7322C20.3141 72.6024 17.8464 72.0078 15.2003 72.0078Z" fill="#F4F5F7"/>
</svg>
