<svg width="42" height="79" viewBox="0 0 42 79" fill="none" xmlns="http://www.w3.org/2000/svg">
<path d="M126.001 -22.4609C115.738 -22.4609 105.714 -18.9302 97.7547 -12.5269C92.2491 -8.09844 85.5765 -5.76453 78.485 -5.76453C71.3936 -5.76453 64.721 -8.09844 59.2154 -12.5269C51.2262 -18.9302 41.2024 -22.4609 30.9392 -22.4609C20.676 -22.4609 10.6522 -18.9301 2.75281 -12.5867L0 -10.4623V7.76014L11.6994 -1.36601C17.2051 -5.79445 23.8477 -8.12836 30.9691 -8.12836C38.0606 -8.12836 44.7332 -5.79445 50.2388 -1.36601C58.198 5.03726 68.2518 8.56804 78.485 8.56804C88.7482 8.56804 98.7721 5.03726 106.761 -1.36601C112.267 -5.79445 118.909 -8.12836 126.031 -8.12836C134.05 -8.12836 139.795 -5.79446 145.39 -1.30618L157 7.76014V-10.4623L154.337 -12.5568C146.318 -18.9601 136.264 -22.4609 126.001 -22.4609Z" fill="#F4F5F7"/>
<path d="M146.436 70.9832C141.948 73.6463 137.25 76.0401 132.403 78.1346L78.4838 35.0172L24.5646 78.1346C19.6873 76.0101 14.9896 73.6164 10.5312 70.9832L78.5137 16.6152L146.436 70.9832Z" fill="#F4F5F7"/>
<path d="M41.4418 15.1804C38.4197 12.7268 34.8889 11.5 30.9392 11.5C28.2762 11.5 25.7926 12.0685 23.5485 13.2055L0 32.0264V50.4283L42.7883 16.1977C42.3095 15.8686 41.8906 15.5395 41.4418 15.1804Z" fill="#F4F5F7"/>
</svg>
