<svg width="174" height="441" viewBox="0 0 174 441" fill="none" xmlns="http://www.w3.org/2000/svg">
<g opacity="0.25">
<path d="M399.371 122.152C366.841 122.152 335.069 133.343 309.842 153.639C292.391 167.675 271.242 175.073 248.765 175.073C226.288 175.073 205.139 167.675 187.688 153.639C162.366 133.343 130.594 122.152 98.0644 122.152C65.5343 122.152 33.763 133.343 8.72527 153.45L0 160.183V217.941L37.0824 189.014C54.5329 174.978 75.5874 167.581 98.1592 167.581C120.636 167.581 141.786 174.978 159.236 189.014C184.464 209.31 216.33 220.501 248.765 220.501C281.295 220.501 313.066 209.31 338.389 189.014C355.839 174.978 376.894 167.581 399.465 167.581C424.883 167.581 443.092 174.978 460.827 189.204L497.625 217.941V160.183L489.184 153.544C463.767 133.249 431.901 122.152 399.371 122.152Z" fill="#C4C4C4"/>
<path d="M488.994 31.392C463.672 11.0963 431.901 0 399.371 0C366.841 0 335.069 11.1911 309.842 31.392C292.391 45.4283 271.242 52.8258 248.765 52.8258C226.288 52.8258 205.139 45.4283 187.688 31.392C162.366 11.0963 130.594 0 98.0644 0C65.5343 0 33.763 11.1911 8.72527 31.2971L0 38.0308V95.883L37.0824 66.8621C54.5329 52.8258 75.5874 45.4283 98.1592 45.4283C120.636 45.4283 141.786 52.8258 159.236 66.8621C184.464 87.1578 216.33 98.254 248.765 98.254C281.295 98.254 313.066 87.063 338.389 66.8621C355.839 52.8258 376.894 45.4283 399.465 45.4283C421.848 45.4283 442.807 52.731 460.258 66.5776L497.53 98.5386V38.505L489.658 31.7714L488.994 31.392Z" fill="#C4C4C4"/>
<path d="M464.142 418.333C449.916 426.774 435.026 434.361 419.662 441L248.76 304.335L77.8588 441C62.3999 434.266 47.51 426.679 33.3789 418.333L248.855 246.009L464.142 418.333Z" fill="#C4C4C4"/>
<path d="M131.353 241.458C121.774 233.681 110.583 229.793 98.0644 229.793C89.6237 229.793 81.7519 231.595 74.639 235.199L0 294.853V353.18L135.621 244.683C134.104 243.64 132.776 242.596 131.353 241.458Z" fill="#C4C4C4"/>
</g>
</svg>
