<svg width="125" height="55" viewBox="0 0 125 55" fill="none" xmlns="http://www.w3.org/2000/svg">
<path d="M99.6154 30.4688C91.5014 30.4688 83.5767 33.2602 77.2842 38.3225C72.9315 41.8236 67.6562 43.6688 62.0497 43.6688C56.4432 43.6688 51.1679 41.8236 46.8152 38.3225C40.4991 33.2602 32.5743 30.4688 24.4603 30.4688C16.3463 30.4688 8.42154 33.2602 2.17635 38.2752L0 39.9548V54.3613L9.2495 47.1462C13.6022 43.6452 18.8538 41.8 24.484 41.8C30.0904 41.8 35.3657 43.6452 39.7184 47.1462C46.0109 52.2086 53.9593 55 62.0497 55C70.1637 55 78.0885 52.2086 84.4046 47.1462C88.7573 43.6452 94.009 41.8 99.6391 41.8C105.979 41.8 110.521 43.6451 114.945 47.1935L124.123 54.3613V39.9548L122.018 38.2989C115.678 33.2365 107.729 30.4688 99.6154 30.4688Z" fill="white" fill-opacity="0.15"/>
<path d="M121.97 7.83014C115.654 2.76776 107.729 0 99.6154 0C91.5014 0 83.5766 2.79141 77.2841 7.83014C72.9314 11.3312 67.6562 13.1764 62.0497 13.1764C56.4432 13.1764 51.1679 11.3312 46.8152 7.83014C40.4991 2.76776 32.5743 0 24.4603 0C16.3463 0 8.42154 2.79141 2.17635 7.80648L0 9.48606V23.9162L9.2495 16.6775C13.6022 13.1764 18.8538 11.3312 24.484 11.3312C30.0904 11.3312 35.3657 13.1764 39.7184 16.6775C46.0109 21.7399 53.9593 24.5076 62.0497 24.5076C70.1637 24.5076 78.0885 21.7162 84.4046 16.6775C88.7573 13.1764 94.0089 11.3312 99.6391 11.3312C105.222 11.3312 110.45 13.1527 114.803 16.6065L124.099 24.5786V9.60434L122.136 7.92477L121.97 7.83014Z" fill="white" fill-opacity="0.15"/>
</svg>
