<svg width="174" height="291" viewBox="0 0 174 291" fill="none" xmlns="http://www.w3.org/2000/svg">
<g opacity="0.25">
<path d="M108.289 80.5293C86.8435 80.5293 65.8979 87.9071 49.2665 101.287C37.762 110.541 23.8192 115.418 9.00092 115.418C-5.81731 115.418 -19.7602 110.541 -31.2646 101.287C-47.9586 87.9071 -68.9042 80.5293 -90.35 80.5293C-111.796 80.5293 -132.741 87.9072 -149.248 101.162L-155 105.602V143.679L-130.553 124.609C-119.049 115.355 -105.168 110.478 -90.2875 110.478C-75.4692 110.478 -61.5263 115.355 -50.0219 124.609C-33.3905 137.989 -12.3824 145.367 9.00092 145.367C30.4467 145.367 51.3923 137.989 68.0863 124.609C79.5907 115.355 93.4711 110.478 108.352 110.478C125.108 110.478 137.113 115.355 148.805 124.734L173.064 143.679V105.602L167.5 101.225C150.743 87.8446 129.735 80.5293 108.289 80.5293Z" fill="#C4C4C4"/>
<path d="M167.375 20.6955C150.681 7.31534 129.735 0 108.289 0C86.8436 0 65.8979 7.37786 49.2665 20.6955C37.7621 29.9491 23.8192 34.826 9.00093 34.826C-5.81729 34.826 -19.7602 29.9491 -31.2646 20.6955C-47.9586 7.31534 -68.9042 0 -90.35 0C-111.796 0 -132.741 7.37785 -149.248 20.633L-155 25.0722V63.2119L-130.553 44.0795C-119.049 34.826 -105.168 29.9491 -90.2875 29.9491C-75.4692 29.9491 -61.5263 34.826 -50.0219 44.0795C-33.3905 57.4597 -12.3823 64.775 9.00093 64.775C30.4467 64.775 51.3923 57.3972 68.0863 44.0795C79.5907 34.826 93.4711 29.9491 108.352 29.9491C123.108 29.9491 136.925 34.7635 148.43 43.892L173.002 64.9626V25.3848L167.812 20.9456L167.375 20.6955Z" fill="#C4C4C4"/>
<path d="M150.99 275.79C141.611 281.355 131.795 286.357 121.666 290.733L8.9973 200.636L-103.671 290.733C-113.863 286.294 -123.679 281.292 -132.995 275.79L9.05983 162.184L150.99 275.79Z" fill="#C4C4C4"/>
<path d="M108.294 151.432C100.103 151.432 92.7252 153.995 86.3477 159.122C85.4099 159.872 84.5346 160.56 83.5342 161.31L172.944 232.838V194.386L123.8 155.058C119.048 152.682 113.858 151.432 108.294 151.432Z" fill="#C4C4C4"/>
</g>
</svg>
