<svg width="320" height="181" viewBox="0 0 320 181" fill="none" xmlns="http://www.w3.org/2000/svg">
<path d="M-290.987 0.565778C-291.234 22.5364 -287.926 44.6621 -287.393 67.4126C-243.41 137.939 -156.412 97.0922 -145.789 90.2745C-135.165 83.4568 -120.217 76.6859 -96.4295 72.8544C-66.0792 67.9652 -33.6984 74.133 -6.49573 88.9705C9.03836 97.4405 22.5633 108.999 36.3303 120.179C45.5862 127.697 55.1734 134.626 64.4335 142.046C73.7277 149.493 83.1915 156.748 93.2842 162.971C105.042 170.222 117.751 176.092 131.2 178.849C147.137 182.116 164.532 179.388 180.117 175.336C196.292 171.135 211.848 164.283 225.984 155.04C237.734 147.356 249.224 139.239 260.493 130.803C270.437 123.356 279.982 115.328 290.419 108.629C305.265 99.0972 320 89.6374 340.67 84.3659C350.308 81.9064 388.309 72.2088 422.439 93.078C428.926 97.0455 500.961 149.742 503.943 152.537C503.943 121.843 501.668 33.3884 501.668 2.69398C306.806 3.31416 -96.129 -0.0586444 -290.987 0.565778Z" fill="#09202E"/>
</svg>
