<svg width="320" height="212" viewBox="0 0 320 212" fill="none" xmlns="http://www.w3.org/2000/svg">
<path d="M-283.302 0.0779586C-284.425 22.0213 -282.001 44.2612 -282.375 67.0149C-241.236 139.238 -152.68 101.889 -141.793 95.4999C-130.907 89.1109 -115.701 82.9409 -91.7794 80.0601C-61.2584 76.3839 -29.1491 83.8368 -2.55908 99.7461C12.6252 108.828 25.6789 120.916 38.9896 132.636C47.9387 140.517 57.2423 147.822 66.1994 155.606C75.1895 163.416 84.3568 171.043 94.1936 177.663C105.653 185.376 118.118 191.749 131.446 195.039C147.241 198.938 164.731 196.906 180.465 193.478C196.795 189.924 212.611 183.698 227.104 175.025C239.15 167.815 250.955 160.162 262.551 152.181C272.784 145.137 282.641 137.496 293.337 131.218C308.55 122.285 323.651 113.42 344.514 108.976C354.243 106.902 392.6 98.7262 425.872 120.939C432.195 125.161 502.074 180.686 504.942 183.598C506.165 152.928 507.416 64.4527 508.638 33.7826C313.906 26.6393 -88.5744 7.21688 -283.302 0.0779586Z" fill="#132C38"/>
<path d="M-290.987 13.5658C-291.234 35.5364 -287.926 57.6621 -287.393 80.4126C-243.41 150.939 -156.412 110.092 -145.789 103.275C-135.165 96.4568 -120.217 89.6859 -96.4295 85.8544C-66.0792 80.9652 -33.6984 87.133 -6.49573 101.97C9.03836 110.44 22.5633 121.999 36.3303 133.179C45.5862 140.697 55.1734 147.626 64.4335 155.046C73.7277 162.493 83.1915 169.748 93.2842 175.971C105.042 183.222 117.751 189.092 131.2 191.849C147.137 195.116 164.532 192.388 180.117 188.336C196.292 184.135 211.848 177.283 225.984 168.04C237.734 160.356 249.224 152.239 260.493 143.803C270.437 136.356 279.982 128.328 290.419 121.629C305.265 112.097 320 102.637 340.67 97.3659C350.308 94.9064 388.309 85.2088 422.439 106.078C428.926 110.045 500.961 162.742 503.943 165.537C503.943 134.843 501.668 46.3884 501.668 15.694C306.806 16.3142 -96.129 12.9414 -290.987 13.5658Z" fill="#09202E"/>
<path d="M-290.987 0.673199C-291.234 22.6438 -287.926 44.7695 -287.393 67.52C-243.41 138.046 -156.412 97.1996 -145.789 90.3819C-135.165 83.5643 -120.217 76.7933 -96.4295 72.9618C-66.0792 68.0727 -33.6984 74.2404 -6.49573 89.0779C9.03836 97.5479 22.5633 109.106 36.3303 120.286C45.5862 127.805 55.1734 134.733 64.4335 142.154C73.7277 149.6 83.1915 156.855 93.2842 163.078C105.042 170.329 117.751 176.2 131.2 178.956C147.137 182.223 164.532 179.496 180.117 175.444C196.292 171.242 211.848 164.391 225.984 155.148C237.734 147.463 249.224 139.346 260.493 130.91C270.437 123.464 279.982 115.435 290.419 108.737C305.265 99.2046 320 89.7448 340.67 84.4733C350.308 82.0138 388.309 72.3162 422.439 93.1855C428.926 97.1529 500.961 149.85 503.943 152.645C503.943 121.95 501.668 33.4958 501.668 2.8014C306.806 3.42158 -96.129 0.0487775 -290.987 0.673199Z" fill="white"/>
</svg>
