<svg width="272" height="99" viewBox="0 0 272 99" fill="transparent"
  xmlns="http://www.w3.org/2000/svg">
  <path d="M262.994 31.392C237.672 11.0963 205.901 0 173.371 0C140.841 0 109.069 11.1911 83.8418 31.392C66.3912 45.4283 45.242 52.8258 22.7649 52.8258C0.287872 52.8258 -20.8614 45.4283 -38.3119 31.392C-63.6342 11.0963 -95.4055 0 -127.936 0C-160.466 0 -192.237 11.1911 -217.275 31.2971L-226 38.0308V95.883L-188.918 66.8621C-171.467 52.8258 -150.413 45.4283 -127.841 45.4283C-105.364 45.4283 -84.2144 52.8258 -66.7639 66.8621C-41.5365 87.1578 -9.6703 98.254 22.7649 98.254C55.295 98.254 87.0663 87.063 112.389 66.8621C129.839 52.8258 150.894 45.4283 173.465 45.4283C195.848 45.4283 216.807 52.731 234.258 66.5776L271.53 98.5386V38.505L263.658 31.7714L262.994 31.392Z" fill="#F4F5F7"/>
</svg>
